<?xml version="1.0" encoding="utf-8"?>
<!-- Generator: Adobe Illustrator 19.0.0, SVG Export Plug-In . SVG Version: 6.00 Build 0)  -->
<svg version="1.1" id="Layer_1" xmlns:sketch="http://www.bohemiancoding.com/sketch/ns"
	 xmlns="http://www.w3.org/2000/svg" xmlns:xlink="http://www.w3.org/1999/xlink" x="0px" y="0px" viewBox="64 -8.8 159.1 48.8"
	 style="enable-background:new 64 -8.8 159.1 48.8;" xml:space="preserve">
<style type="text/css">
	.st0{fill:#FFFFFF;}
</style>
<g>
	<path id="path-1" class="st0" d="M64-8.8h159.1V40H64V-8.8z"/>
</g>
<title>spotify-logo-horizontal-black-cmyk</title>
<desc>Created with Sketch.</desc>
<g id="Welcome" sketch:type="MSPage">
	<g id="Desktop-HD" transform="translate(-230.000000, -43.000000)" sketch:type="MSArtboardGroup">
		<g id="spotify-logo-horizontal-black-cmyk" transform="translate(230.000000, 43.000000)" sketch:type="MSLayerGroup">
			<g id="Group-3">
				<g id="Clip-2">
				</g>
				<path id="Fill-1" sketch:type="MSShapeGroup" d="M102,12.9c-7.7-4.7-20.4-5.1-27.7-2.8c-1.2,0.4-2.4-0.3-2.8-1.5
					c-0.4-1.2,0.3-2.5,1.5-2.8c8.4-2.6,22.4-2.1,31.3,3.3c1.1,0.6,1.4,2,0.8,3.1C104.4,13.2,103,13.5,102,12.9L102,12.9z
					 M101.8,19.8c-0.5,0.9-1.7,1.2-2.6,0.6c-6.4-4-16.2-5.2-23.8-2.8c-1,0.3-2-0.3-2.3-1.3s0.3-2.1,1.2-2.4
					c8.7-2.7,19.4-1.4,26.8,3.2C102,17.7,102.2,18.9,101.8,19.8L101.8,19.8z M98.8,26.4c-0.4,0.7-1.3,0.9-2,0.5
					c-5.6-3.5-12.7-4.3-21-2.4c-0.8,0.2-1.6-0.3-1.8-1.1c-0.2-0.8,0.3-1.6,1.1-1.8c9.1-2.1,16.9-1.2,23.2,2.7
					C99,24.8,99.2,25.7,98.8,26.4L98.8,26.4z M87.8-8.8c-13.2,0-23.9,10.9-23.9,24.4S74.6,40,87.8,40s23.9-10.9,23.9-24.4
					C111.8,2.2,101-8.8,87.8-8.8L87.8-8.8z"/>
			</g>
			<path id="Fill-4" sketch:type="MSShapeGroup" d="M128.9,13.8c-4.1-1-4.9-1.7-4.9-3.2c0-1.4,1.3-2.3,3.2-2.3s3.7,0.7,5.6,2.2
				c0.1,0,0.1,0.1,0.2,0.1c0.1,0,0.1-0.1,0.2-0.1l2-2.9c0.1-0.1,0.1-0.3-0.1-0.4c-2.3-1.9-4.9-2.8-7.9-2.8c-4.4,0-7.6,2.7-7.6,6.6
				c0,4.2,2.7,5.7,7.3,6.8c3.9,0.9,4.6,1.7,4.6,3.1c0,1.5-1.3,2.5-3.5,2.5c-2.4,0-4.4-0.8-6.6-2.8c-0.1,0-0.1-0.1-0.2-0.1
				c-0.1,0-0.1,0-0.2,0.1l-2.3,2.7c-0.1,0.1-0.1,0.3,0,0.4c2.6,2.3,5.7,3.6,9.1,3.6c4.8,0,7.9-2.7,7.9-6.8
				C136,16.9,133.9,15,128.9,13.8"/>
			<path id="Fill-5" sketch:type="MSShapeGroup" d="M150.3,18.5c0,3-1.8,5-4.3,5s-4.4-2.2-4.4-5c0-2.9,1.9-5,4.4-5
				C148.5,13.4,150.3,15.5,150.3,18.5L150.3,18.5z M146.8,9.6c-2.1,0-3.8,0.8-5.2,2.6v-1.9c0-0.2-0.1-0.3-0.3-0.3h-3.7
				c-0.1,0-0.3,0.1-0.3,0.3v21.5c0,0.2,0.1,0.3,0.3,0.3h3.7c0.1,0,0.3-0.1,0.3-0.3V25c1.4,1.6,3.1,2.4,5.2,2.4c3.9,0,7.8-3,7.8-8.9
				C154.6,12.6,150.8,9.6,146.8,9.6L146.8,9.6z"/>
			<path id="Fill-6" sketch:type="MSShapeGroup" d="M164.6,23.5c-2.6,0-4.6-2.2-4.6-5.1s1.9-5,4.6-5s4.7,2.2,4.7,5.1
				C169.2,21.4,167.3,23.5,164.6,23.5L164.6,23.5z M164.6,9.6c-5,0-8.9,3.9-8.9,8.9c0,4.9,3.9,8.8,8.8,8.8c5,0,8.9-3.9,8.9-8.9
				C173.4,13.5,169.5,9.6,164.6,9.6L164.6,9.6z"/>
			<path id="Fill-7" sketch:type="MSShapeGroup" d="M184,10h-4.1V5.8c0-0.2-0.1-0.3-0.3-0.3h-3.7c-0.1,0-0.3,0.1-0.3,0.3V10h-1.8
				c-0.1,0-0.3,0.1-0.3,0.3v3.2c0,0.2,0.1,0.3,0.3,0.3h1.8v8.4c0,3.4,1.6,5.1,4.9,5.1c1.3,0,2.4-0.3,3.5-0.9c0.1,0,0.1-0.1,0.1-0.2
				v-3.1c0-0.1,0-0.2-0.1-0.2c-0.1-0.1-0.2-0.1-0.3,0c-0.7,0.4-1.4,0.5-2.2,0.5c-1.2,0-1.7-0.5-1.7-1.8v-7.8h4.1
				c0.1,0,0.3-0.1,0.3-0.3v-3.2C184.3,10.1,184.2,10,184,10"/>
			<path id="Fill-8" sketch:type="MSShapeGroup" d="M198.2,10V9.5c0-1.5,0.6-2.2,1.9-2.2c0.8,0,1.4,0.2,2.1,0.4c0.1,0,0.2,0,0.2,0
				c0.1-0.1,0.1-0.1,0.1-0.2V4.3c0-0.1-0.1-0.2-0.2-0.3c-0.7-0.2-1.7-0.5-3.1-0.5c-3.4,0-5.2,2-5.2,5.7V10h-1.8
				c-0.1,0-0.3,0.1-0.3,0.3v3.3c0,0.2,0.1,0.3,0.3,0.3h1.8v12.9c0,0.2,0.1,0.3,0.3,0.3h3.7c0.1,0,0.3-0.1,0.3-0.3V13.9h3.4l5.3,12.9
				c-0.6,1.4-1.2,1.6-2,1.6c-0.6,0-1.3-0.2-2-0.6c-0.1,0-0.1,0-0.2,0c-0.1,0-0.1,0.1-0.2,0.1l-1.3,2.8c-0.1,0.1,0,0.3,0.1,0.4
				c1.3,0.7,2.5,1,3.9,1c2.7,0,4.2-1.3,5.6-4.8l6.4-16.9c0-0.1,0-0.2,0-0.3c-0.1-0.1-0.1-0.1-0.2-0.1h-3.8c-0.1,0-0.2,0.1-0.3,0.2
				l-3.9,11.5l-4.3-11.5c0-0.1-0.1-0.2-0.3-0.2L198.2,10"/>
			<path id="Fill-9" sketch:type="MSShapeGroup" d="M190,10h-3.7c-0.1,0-0.3,0.1-0.3,0.3v16.5c0,0.2,0.1,0.3,0.3,0.3h3.7
				c0.1,0,0.3-0.1,0.3-0.3V10.3C190.2,10.1,190.1,10,190,10"/>
			<path id="Fill-10" sketch:type="MSShapeGroup" d="M188.1,2.5c-1.5,0-2.6,1.2-2.6,2.7s1.2,2.7,2.6,2.7c1.5,0,2.6-1.2,2.6-2.7
				C190.8,3.7,189.6,2.5,188.1,2.5"/>
			<path id="Fill-11" sketch:type="MSShapeGroup" d="M220.6,11.6h-0.7v0.9h0.7c0.3,0,0.5-0.2,0.5-0.4
				C221.1,11.7,220.9,11.6,220.6,11.6L220.6,11.6z M221,12.8l0.7,1.1h-0.6l-0.7-1h-0.6v1h-0.5v-2.8h1.2c0.6,0,1,0.3,1,0.9
				C221.8,12.5,221.4,12.7,221,12.8L221,12.8z M220.5,10.2c-1.3,0-2.3,1.1-2.3,2.4c0,1.3,1,2.4,2.3,2.4c1.3,0,2.3-1.1,2.3-2.4
				C222.8,11.2,221.8,10.2,220.5,10.2L220.5,10.2z M220.5,15.2c-1.5,0-2.6-1.2-2.6-2.7s1.2-2.7,2.6-2.7c1.5,0,2.6,1.2,2.6,2.7
				C223.1,14,221.9,15.2,220.5,15.2L220.5,15.2z"/>
		</g>
	</g>
</g>
</svg>
