<?xml version="1.0" encoding="utf-8"?>
<!-- Generator: Adobe Illustrator 19.0.0, SVG Export Plug-In . SVG Version: 6.00 Build 0)  -->
<svg version="1.1" id="Layer_1" xmlns:sketch="http://www.bohemiancoding.com/sketch/ns"
	 xmlns="http://www.w3.org/2000/svg" xmlns:xlink="http://www.w3.org/1999/xlink" x="0px" y="0px"
	 viewBox="-202.1 226.1 159.1 48.8" style="enable-background:new -202.1 226.1 159.1 48.8;" xml:space="preserve">
<style type="text/css">
	.st0{filter:url(#Adobe_OpacityMaskFilter);}
	.st1{fill:#FFFFFF;}
	.st2{mask:url(#mask-2);fill:#4D4D4D;}
	.st3{fill:#4D4D4D;}
</style>
<title>spotify-logo-horizontal-black-cmyk</title>
<desc>Created with Sketch.</desc>
<g id="Welcome" sketch:type="MSPage">
	<g id="Desktop-HD" transform="translate(-230.000000, -43.000000)" sketch:type="MSArtboardGroup">
		<g id="spotify-logo-horizontal-black-cmyk" transform="translate(230.000000, 43.000000)" sketch:type="MSLayerGroup">
			<g id="Group-3">
				<g id="Clip-2">
				</g>
				<defs>
					<filter id="Adobe_OpacityMaskFilter" filterUnits="userSpaceOnUse" x="-202.1" y="226.1" width="47.7" height="48.8">
						<feColorMatrix  type="matrix" values="1 0 0 0 0  0 1 0 0 0  0 0 1 0 0  0 0 0 1 0"/>
					</filter>
				</defs>
				<mask maskUnits="userSpaceOnUse" x="-202.1" y="226.1" width="47.7" height="48.8" id="mask-2">
					<g class="st0">
						<path id="path-1" class="st1" d="M-202.1,226.1H-43v48.8h-159.1V226.1z"/>
					</g>
				</mask>
				<path id="Fill-1" sketch:type="MSShapeGroup" class="st2" d="M-164.1,247.8c-7.7-4.7-20.4-5.1-27.7-2.8
					c-1.2,0.4-2.4-0.3-2.8-1.5c-0.4-1.2,0.3-2.5,1.5-2.8c8.4-2.6,22.4-2.1,31.3,3.3c1.1,0.6,1.4,2,0.8,3.1
					C-161.7,248.1-163.1,248.4-164.1,247.8L-164.1,247.8z M-164.4,254.7c-0.5,0.9-1.7,1.2-2.6,0.6c-6.4-4-16.2-5.2-23.8-2.8
					c-1,0.3-2-0.3-2.3-1.3c-0.3-1,0.3-2.1,1.2-2.4c8.7-2.7,19.4-1.4,26.8,3.2C-164.1,252.6-163.9,253.8-164.4,254.7L-164.4,254.7z
					 M-167.3,261.3c-0.4,0.7-1.3,0.9-2,0.5c-5.6-3.5-12.7-4.3-21-2.4c-0.8,0.2-1.6-0.3-1.8-1.1c-0.2-0.8,0.3-1.6,1.1-1.8
					c9.1-2.1,16.9-1.2,23.2,2.7C-167.1,259.7-166.9,260.6-167.3,261.3L-167.3,261.3z M-178.3,226.1c-13.2,0-23.9,10.9-23.9,24.4
					c0,13.5,10.7,24.4,23.9,24.4c13.2,0,23.9-10.9,23.9-24.4C-154.4,237.1-165.1,226.1-178.3,226.1L-178.3,226.1z"/>
			</g>
			<path id="Fill-4" sketch:type="MSShapeGroup" class="st3" d="M-137.2,248.7c-4.1-1-4.9-1.7-4.9-3.2c0-1.4,1.3-2.3,3.2-2.3
				c1.9,0,3.7,0.7,5.6,2.2c0.1,0,0.1,0.1,0.2,0.1c0.1,0,0.1-0.1,0.2-0.1l2-2.9c0.1-0.1,0.1-0.3-0.1-0.4c-2.3-1.9-4.9-2.8-7.9-2.8
				c-4.4,0-7.6,2.7-7.6,6.6c0,4.2,2.7,5.7,7.3,6.8c3.9,0.9,4.6,1.7,4.6,3.1c0,1.5-1.3,2.5-3.5,2.5c-2.4,0-4.4-0.8-6.6-2.8
				c-0.1,0-0.1-0.1-0.2-0.1c-0.1,0-0.1,0-0.2,0.1l-2.3,2.7c-0.1,0.1-0.1,0.3,0,0.4c2.6,2.3,5.7,3.6,9.1,3.6c4.8,0,7.9-2.7,7.9-6.8
				C-130.1,251.8-132.2,249.9-137.2,248.7"/>
			<path id="Fill-5" sketch:type="MSShapeGroup" class="st3" d="M-115.8,253.4c0,3-1.8,5-4.3,5c-2.5,0-4.4-2.2-4.4-5
				c0-2.9,1.9-5,4.4-5C-117.6,248.3-115.8,250.4-115.8,253.4L-115.8,253.4z M-119.3,244.5c-2.1,0-3.8,0.8-5.2,2.6v-1.9
				c0-0.2-0.1-0.3-0.3-0.3h-3.7c-0.1,0-0.3,0.1-0.3,0.3v21.5c0,0.2,0.1,0.3,0.3,0.3h3.7c0.1,0,0.3-0.1,0.3-0.3v-6.8
				c1.4,1.6,3.1,2.4,5.2,2.4c3.9,0,7.8-3,7.8-8.9C-111.5,247.5-115.4,244.5-119.3,244.5L-119.3,244.5z"/>
			<path id="Fill-6" sketch:type="MSShapeGroup" class="st3" d="M-101.5,258.4c-2.6,0-4.6-2.2-4.6-5.1c0-2.9,1.9-5,4.6-5
				c2.7,0,4.7,2.2,4.7,5.1C-96.9,256.3-98.8,258.4-101.5,258.4L-101.5,258.4z M-101.5,244.5c-5,0-8.9,3.9-8.9,8.9
				c0,4.9,3.9,8.8,8.8,8.8c5,0,8.9-3.9,8.9-8.9C-92.7,248.4-96.6,244.5-101.5,244.5L-101.5,244.5z"/>
			<path id="Fill-7" sketch:type="MSShapeGroup" class="st3" d="M-82.1,244.9h-4.1v-4.2c0-0.2-0.1-0.3-0.3-0.3h-3.7
				c-0.1,0-0.3,0.1-0.3,0.3v4.2h-1.8c-0.1,0-0.3,0.1-0.3,0.3v3.2c0,0.2,0.1,0.3,0.3,0.3h1.8v8.4c0,3.4,1.6,5.1,4.9,5.1
				c1.3,0,2.4-0.3,3.5-0.9c0.1,0,0.1-0.1,0.1-0.2v-3.1c0-0.1,0-0.2-0.1-0.2c-0.1-0.1-0.2-0.1-0.3,0c-0.7,0.4-1.4,0.5-2.2,0.5
				c-1.2,0-1.7-0.5-1.7-1.8v-7.8h4.1c0.1,0,0.3-0.1,0.3-0.3v-3.2C-81.8,245-81.9,244.9-82.1,244.9"/>
			<path id="Fill-8" sketch:type="MSShapeGroup" class="st3" d="M-67.9,244.9v-0.5c0-1.5,0.6-2.2,1.9-2.2c0.8,0,1.4,0.2,2.1,0.4
				c0.1,0,0.2,0,0.2,0c0.1-0.1,0.1-0.1,0.1-0.2v-3.2c0-0.1-0.1-0.2-0.2-0.3c-0.7-0.2-1.7-0.5-3.1-0.5c-3.4,0-5.2,2-5.2,5.7v0.8h-1.8
				c-0.1,0-0.3,0.1-0.3,0.3v3.3c0,0.2,0.1,0.3,0.3,0.3h1.8v12.9c0,0.2,0.1,0.3,0.3,0.3h3.7c0.1,0,0.3-0.1,0.3-0.3v-12.9h3.4
				l5.3,12.9c-0.6,1.4-1.2,1.6-2,1.6c-0.6,0-1.3-0.2-2-0.6c-0.1,0-0.1,0-0.2,0c-0.1,0-0.1,0.1-0.2,0.1l-1.3,2.8
				c-0.1,0.1,0,0.3,0.1,0.4c1.3,0.7,2.5,1,3.9,1c2.7,0,4.2-1.3,5.6-4.8l6.4-16.9c0-0.1,0-0.2,0-0.3c-0.1-0.1-0.1-0.1-0.2-0.1h-3.8
				c-0.1,0-0.2,0.1-0.3,0.2l-3.9,11.5l-4.3-11.5c0-0.1-0.1-0.2-0.3-0.2H-67.9"/>
			<path id="Fill-9" sketch:type="MSShapeGroup" class="st3" d="M-76.1,244.9h-3.7c-0.1,0-0.3,0.1-0.3,0.3v16.5
				c0,0.2,0.1,0.3,0.3,0.3h3.7c0.1,0,0.3-0.1,0.3-0.3v-16.5C-75.9,245-76,244.9-76.1,244.9"/>
			<path id="Fill-10" sketch:type="MSShapeGroup" class="st3" d="M-78,237.4c-1.5,0-2.6,1.2-2.6,2.7c0,1.5,1.2,2.7,2.6,2.7
				c1.5,0,2.6-1.2,2.6-2.7C-75.3,238.6-76.5,237.4-78,237.4"/>
			<path id="Fill-11" sketch:type="MSShapeGroup" class="st3" d="M-45.5,246.5h-0.7v0.9h0.7c0.3,0,0.5-0.2,0.5-0.4
				C-45,246.6-45.2,246.5-45.5,246.5L-45.5,246.5z M-45.1,247.7l0.7,1.1h-0.6l-0.7-1h-0.6v1h-0.5V246h1.2c0.6,0,1,0.3,1,0.9
				C-44.4,247.4-44.7,247.6-45.1,247.7L-45.1,247.7z M-45.6,245.1c-1.3,0-2.3,1.1-2.3,2.4c0,1.3,1,2.4,2.3,2.4
				c1.3,0,2.3-1.1,2.3-2.4C-43.3,246.1-44.3,245.1-45.6,245.1L-45.6,245.1z M-45.6,250.1c-1.5,0-2.6-1.2-2.6-2.7
				c0-1.5,1.2-2.7,2.6-2.7c1.5,0,2.6,1.2,2.6,2.7C-43,248.9-44.2,250.1-45.6,250.1L-45.6,250.1z"/>
		</g>
	</g>
</g>
</svg>
